<svg width="24" height="24" viewBox="0 0 24 24" fill="none" xmlns="http://www.w3.org/2000/svg">
<path d="M9.17006 12.7101L13.4101 16.9501C13.503 17.0438 13.6136 17.1182 13.7355 17.1689C13.8573 17.2197 13.988 17.2458 14.1201 17.2458C14.2521 17.2458 14.3828 17.2197 14.5046 17.1689C14.6265 17.1182 14.7371 17.0438 14.8301 16.9501C15.0163 16.7627 15.1208 16.5092 15.1208 16.2451C15.1208 15.9809 15.0163 15.7274 14.8301 15.5401L11.2901 12.0001L14.8301 8.46005C15.0163 8.27269 15.1209 8.01924 15.1209 7.75505C15.1209 7.49086 15.0163 7.23741 14.8301 7.05005C14.7366 6.95737 14.6258 6.88404 14.504 6.83428C14.3821 6.78452 14.2517 6.75929 14.1201 6.76005C13.9885 6.75929 13.858 6.78452 13.7362 6.83428C13.6143 6.88404 13.5035 6.95737 13.4101 7.05005L9.17006 11.2901C9.07633 11.383 9.00194 11.4936 8.95117 11.6155C8.9004 11.7373 8.87426 11.868 8.87426 12.0001C8.87426 12.1321 8.9004 12.2628 8.95117 12.3846C9.00194 12.5065 9.07633 12.6171 9.17006 12.7101Z" fill="#050510"/>
</svg>
